<svg width="1920" height="955" xmlns="http://www.w3.org/2000/svg"><g><path d="M-43,-76L-117,365L-28,127Z" fill="#d28527" stroke="#d28527"/><path d="M-43,-76L-28,127L29,127Z" fill="#cc721c" stroke="#cc721c"/><path d="M-43,-76L29,127L100,-124Z" fill="#c45d14" stroke="#c45d14"/><path d="M100,-124L29,127L210,-71Z" fill="#ce691d" stroke="#ce691d"/><path d="M100,-124L210,-71L350,-68Z" fill="#d0621f" stroke="#d0621f"/><path d="M100,-124L350,-68L495,-62Z" fill="#d76f2e" stroke="#d76f2e"/><path d="M100,-124L495,-62L870,-88Z" fill="#da8052" stroke="#da8052"/><path d="M100,-124L870,-88L965,-99Z" fill="#d98769" stroke="#d98769"/><path d="M100,-124L965,-99L1246,-123Z" fill="#d58976" stroke="#d58976"/><path d="M210,-71L29,127L264,86Z" fill="#df872d" stroke="#df872d"/><path d="M210,-71L264,86L350,-68Z" fill="#e1802f" stroke="#e1802f"/><path d="M350,-68L264,86L405,72Z" fill="#e99844" stroke="#e99844"/><path d="M350,-68L405,72L495,-62Z" fill="#e4904d" stroke="#e4904d"/><path d="M495,-62L405,72L539,124Z" fill="#efac64" stroke="#efac64"/><path d="M495,-62L539,124L622,83Z" fill="#f1b575" stroke="#f1b575"/><path d="M495,-62L622,83L671,-56Z" fill="#e7a370" stroke="#e7a370"/><path d="M495,-62L671,-56L870,-88Z" fill="#de9472" stroke="#de9472"/><path d="M671,-56L622,83L827,94Z" fill="#eeb885" stroke="#eeb885"/><path d="M671,-56L827,94L870,-88Z" fill="#e4a987" stroke="#e4a987"/><path d="M870,-88L827,94L928,85Z" fill="#e8b791" stroke="#e8b791"/><path d="M870,-88L928,85L965,-99Z" fill="#dca086" stroke="#dca086"/><path d="M965,-99L928,85L1077,-41Z" fill="#daa187" stroke="#daa187"/><path d="M965,-99L1077,-41L1246,-123Z" fill="#c9857a" stroke="#c9857a"/><path d="M1077,-41L928,85L1150,99Z" fill="#e1b48f" stroke="#e1b48f"/><path d="M1077,-41L1150,99L1246,-123Z" fill="#cc927f" stroke="#cc927f"/><path d="M1246,-123L1150,99L1273,106Z" fill="#cc9982" stroke="#cc9982"/><path d="M1246,-123L1273,106L1428,16Z" fill="#be8377" stroke="#be8377"/><path d="M1246,-123L1428,16L1411,-86Z" fill="#ae686a" stroke="#ae686a"/><path d="M1246,-123L1411,-86L2015,-79Z" fill="#913951" stroke="#913951"/><path d="M1411,-86L1428,16L1602,-18Z" fill="#a55e63" stroke="#a55e63"/><path d="M1411,-86L1602,-18L1689,-54Z" fill="#974656" stroke="#974656"/><path d="M1411,-86L1689,-54L2015,-79Z" fill="#822544" stroke="#822544"/><path d="M1602,-18L1428,16L1516,56Z" fill="#a86766" stroke="#a86766"/><path d="M1602,-18L1516,56L1608,231Z" fill="#ac726b" stroke="#ac726b"/><path d="M1602,-18L1608,231L1764,98Z" fill="#a36864" stroke="#a36864"/><path d="M1602,-18L1764,98L1689,-54Z" fill="#914453" stroke="#914453"/><path d="M1689,-54L1764,98L1857,47Z" fill="#8a3f4d" stroke="#8a3f4d"/><path d="M1689,-54L1857,47L1875,-16Z" fill="#7f3243" stroke="#7f3243"/><path d="M1689,-54L1875,-16L2015,-79Z" fill="#722537" stroke="#722537"/><path d="M1875,-16L1857,47L2025,16Z" fill="#753a3b" stroke="#753a3b"/><path d="M1875,-16L2025,16L2015,-79Z" fill="#682c2f" stroke="#682c2f"/><path d="M-28,127L-117,365L-39,211Z" fill="#d29b59" stroke="#d29b59"/><path d="M-28,127L-39,211L29,127Z" fill="#d89031" stroke="#d89031"/><path d="M29,127L-39,211L71,246Z" fill="#dc9d49" stroke="#dc9d49"/><path d="M29,127L71,246L274,170Z" fill="#e7a84d" stroke="#e7a84d"/><path d="M29,127L274,170L264,86Z" fill="#eda43c" stroke="#eda43c"/><path d="M264,86L274,170L330,188Z" fill="#f9b74f" stroke="#f9b74f"/><path d="M264,86L330,188L405,72Z" fill="#f7b250" stroke="#f7b250"/><path d="M405,72L330,188L539,124Z" fill="#fac165" stroke="#fac165"/><path d="M539,124L330,188L575,187Z" fill="#fdd082" stroke="#fdd082"/><path d="M539,124L575,187L622,83Z" fill="#fdd184" stroke="#fdd184"/><path d="M622,83L575,187L688,264Z" fill="#fedea0" stroke="#fedea0"/><path d="M622,83L688,264L827,94Z" fill="#fddb9a" stroke="#fddb9a"/><path d="M827,94L688,264L826,274Z" fill="#fcebc3" stroke="#fcebc3"/><path d="M827,94L826,274L933,217Z" fill="#f9e8bf" stroke="#f9e8bf"/><path d="M827,94L933,217L928,85Z" fill="#f7d7a0" stroke="#f7d7a0"/><path d="M928,85L933,217L1150,99Z" fill="#f1d29d" stroke="#f1d29d"/><path d="M1150,99L933,217L1182,217Z" fill="#ecd8b1" stroke="#ecd8b1"/><path d="M1150,99L1182,217L1261,200Z" fill="#e0c8a7" stroke="#e0c8a7"/><path d="M1150,99L1261,200L1273,106Z" fill="#ddbc92" stroke="#ddbc92"/><path d="M1273,106L1261,200L1483,270Z" fill="#d0b9a7" stroke="#d0b9a7"/><path d="M1273,106L1483,270L1428,16Z" fill="#c8a284" stroke="#c8a284"/><path d="M1428,16L1483,270L1516,56Z" fill="#bc8d79" stroke="#bc8d79"/><path d="M1516,56L1483,270L1608,231Z" fill="#b89490" stroke="#b89490"/><path d="M1764,98L1608,231L1775,277Z" fill="#a17685" stroke="#a17685"/><path d="M1764,98L1775,277L1901,218Z" fill="#956f78" stroke="#956f78"/><path d="M1764,98L1901,218L1857,47Z" fill="#8f5c53" stroke="#8f5c53"/><path d="M1857,47L1901,218L2025,16Z" fill="#805345" stroke="#805345"/><path d="M2025,16L1901,218L2026,270Z" fill="#806856" stroke="#806856"/><path d="M2025,16L2026,270L2041,829Z" fill="#808095" stroke="#808095"/><path d="M-39,211L-117,365L71,246Z" fill="#d6a86d" stroke="#d6a86d"/><path d="M71,246L-117,365L68,433Z" fill="#daad7b" stroke="#daad7b"/><path d="M71,246L68,433L167,395Z" fill="#e5ba87" stroke="#e5ba87"/><path d="M71,246L167,395L274,170Z" fill="#edc380" stroke="#edc380"/><path d="M274,170L167,395L330,188Z" fill="#f6ca7f" stroke="#f6ca7f"/><path d="M330,188L167,395L400,339Z" fill="#f9d497" stroke="#f9d497"/><path d="M330,188L400,339L575,187Z" fill="#fcdb9d" stroke="#fcdb9d"/><path d="M575,187L400,339L527,386Z" fill="#feeac2" stroke="#feeac2"/><path d="M575,187L527,386L688,264Z" fill="#fef2ce" stroke="#fef2ce"/><path d="M688,264L527,386L676,434Z" fill="#fef3de" stroke="#fef3de"/><path d="M688,264L676,434L782,357Z" fill="#fdf7e7" stroke="#fdf7e7"/><path d="M688,264L782,357L826,274Z" fill="#fcf9e5" stroke="#fcf9e5"/><path d="M826,274L782,357L962,335Z" fill="#f9f9ef" stroke="#f9f9ef"/><path d="M826,274L962,335L933,217Z" fill="#f6f7e7" stroke="#f6f7e7"/><path d="M933,217L962,335L1182,217Z" fill="#f0eddb" stroke="#f0eddb"/><path d="M1182,217L962,335L1184,365Z" fill="#eaebe6" stroke="#eaebe6"/><path d="M1182,217L1184,365L1261,200Z" fill="#dfdbd4" stroke="#dfdbd4"/><path d="M1261,200L1184,365L1259,406Z" fill="#dcdadf" stroke="#dcdadf"/><path d="M1261,200L1259,406L1415,419Z" fill="#d3cfdc" stroke="#d3cfdc"/><path d="M1261,200L1415,419L1483,270Z" fill="#cac4d0" stroke="#cac4d0"/><path d="M1483,270L1415,419L1597,415Z" fill="#bcafce" stroke="#bcafce"/><path d="M1483,270L1597,415L1608,231Z" fill="#b4a3be" stroke="#b4a3be"/><path d="M1608,231L1597,415L1694,423Z" fill="#ab96be" stroke="#ab96be"/><path d="M1608,231L1694,423L1775,277Z" fill="#a48ab1" stroke="#a48ab1"/><path d="M1775,277L1694,423L1819,496Z" fill="#9b80b6" stroke="#9b80b6"/><path d="M1775,277L1819,496L1921,331Z" fill="#9280aa" stroke="#9280aa"/><path d="M1775,277L1921,331L1901,218Z" fill="#8e809a" stroke="#8e809a"/><path d="M1901,218L1921,331L2026,270Z" fill="#848090" stroke="#848090"/><path d="M2026,270L1921,331L1988,338Z" fill="#808092" stroke="#808092"/><path d="M2026,270L1988,338L1987,525Z" fill="#808099" stroke="#808099"/><path d="M2026,270L1987,525L2041,829Z" fill="#80809c" stroke="#80809c"/><path d="M-117,365L-133,868L-118,632Z" fill="#b7837a" stroke="#b7837a"/><path d="M-117,365L-118,632L-45,501Z" fill="#cf9f80" stroke="#cf9f80"/><path d="M-117,365L-45,501L68,433Z" fill="#d6a780" stroke="#d6a780"/><path d="M68,433L-45,501L99,525Z" fill="#deb187" stroke="#deb187"/><path d="M68,433L99,525L166,481Z" fill="#e6bb8e" stroke="#e6bb8e"/><path d="M68,433L166,481L167,395Z" fill="#e8be91" stroke="#e8be91"/><path d="M167,395L166,481L412,487Z" fill="#f5ce9d" stroke="#f5ce9d"/><path d="M167,395L412,487L400,339Z" fill="#f9d7aa" stroke="#f9d7aa"/><path d="M400,339L412,487L527,386Z" fill="#fce4c4" stroke="#fce4c4"/><path d="M527,386L412,487L534,480Z" fill="#fde9ce" stroke="#fde9ce"/><path d="M527,386L534,480L676,434Z" fill="#fef1de" stroke="#fef1de"/><path d="M676,434L534,480L690,498Z" fill="#fef3e5" stroke="#fef3e5"/><path d="M676,434L690,498L809,514Z" fill="#fcf7f0" stroke="#fcf7f0"/><path d="M676,434L809,514L782,357Z" fill="#fcf8f3" stroke="#fcf8f3"/><path d="M782,357L809,514L962,335Z" fill="#fafafa" stroke="#fafafa"/><path d="M962,335L809,514L1006,582Z" fill="#f5f6f9" stroke="#f5f6f9"/><path d="M962,335L1006,582L1171,520Z" fill="#efeff6" stroke="#efeff6"/><path d="M962,335L1171,520L1184,365Z" fill="#ebecf4" stroke="#ebecf4"/><path d="M1184,365L1171,520L1240,489Z" fill="#e0dfee" stroke="#e0dfee"/><path d="M1184,365L1240,489L1259,406Z" fill="#dddbec" stroke="#dddbec"/><path d="M1259,406L1240,489L1415,419Z" fill="#d4d0e6" stroke="#d4d0e6"/><path d="M1415,419L1240,489L1462,482Z" fill="#ccc7e1" stroke="#ccc7e1"/><path d="M1415,419L1462,482L1597,415Z" fill="#bdb0d4" stroke="#bdb0d4"/><path d="M1597,415L1462,482L1523,570Z" fill="#b9a9d0" stroke="#b9a9d0"/><path d="M1597,415L1523,570L1681,534Z" fill="#af9cc9" stroke="#af9cc9"/><path d="M1597,415L1681,534L1694,423Z" fill="#a891c3" stroke="#a891c3"/><path d="M1694,423L1681,534L1819,496Z" fill="#9f83bb" stroke="#9f83bb"/><path d="M1921,331L1819,496L1987,525Z" fill="#8980a7" stroke="#8980a7"/><path d="M1921,331L1987,525L1988,338Z" fill="#8280a0" stroke="#8280a0"/><path d="M-45,501L-118,632L103,649Z" fill="#ca9a7d" stroke="#ca9a7d"/><path d="M-45,501L103,649L99,525Z" fill="#dcaf87" stroke="#dcaf87"/><path d="M99,525L103,649L166,481Z" fill="#e6bb8f" stroke="#e6bb8f"/><path d="M166,481L103,649L271,716Z" fill="#dbae90" stroke="#dbae90"/><path d="M166,481L271,716L382,672Z" fill="#e4b99a" stroke="#e4b99a"/><path d="M166,481L382,672L412,487Z" fill="#f9d6aa" stroke="#f9d6aa"/><path d="M412,487L382,672L577,651Z" fill="#edd4c3" stroke="#edd4c3"/><path d="M412,487L577,651L534,480Z" fill="#feebd2" stroke="#feebd2"/><path d="M534,480L577,651L690,498Z" fill="#fef2e1" stroke="#fef2e1"/><path d="M690,498L577,651L656,721Z" fill="#e9dbdf" stroke="#e9dbdf"/><path d="M690,498L656,721L836,657Z" fill="#e7dee9" stroke="#e7dee9"/><path d="M690,498L836,657L809,514Z" fill="#f9f6f5" stroke="#f9f6f5"/><path d="M809,514L836,657L1006,582Z" fill="#edecf7" stroke="#edecf7"/><path d="M1006,582L836,657L954,701Z" fill="#dad5f1" stroke="#dad5f1"/><path d="M1006,582L954,701L1074,654Z" fill="#d6d2ef" stroke="#d6d2ef"/><path d="M1006,582L1074,654L1171,520Z" fill="#e2e1f3" stroke="#e2e1f3"/><path d="M1171,520L1074,654L1284,648Z" fill="#d2ceea" stroke="#d2ceea"/><path d="M1171,520L1284,648L1240,489Z" fill="#dad8eb" stroke="#dad8eb"/><path d="M1240,489L1284,648L1462,482Z" fill="#d1cde4" stroke="#d1cde4"/><path d="M1462,482L1284,648L1523,570Z" fill="#c0b7da" stroke="#c0b7da"/><path d="M1523,570L1284,648L1373,719Z" fill="#afa3d7" stroke="#afa3d7"/><path d="M1523,570L1373,719L1575,681Z" fill="#a08dcb" stroke="#a08dcb"/><path d="M1523,570L1575,681L1681,534Z" fill="#a38ec5" stroke="#a38ec5"/><path d="M1681,534L1575,681L1681,696Z" fill="#9176bc" stroke="#9176bc"/><path d="M1681,534L1681,696L1819,496Z" fill="#987ab9" stroke="#987ab9"/><path d="M1819,496L1681,696L1900,723Z" fill="#7d63ac" stroke="#7d63ac"/><path d="M1819,496L1900,723L1985,663Z" fill="#7466a2" stroke="#7466a2"/><path d="M1819,496L1985,663L1987,525Z" fill="#827ba4" stroke="#827ba4"/><path d="M1987,525L1985,663L2041,829Z" fill="#5e5893" stroke="#5e5893"/><path d="M-118,632L-133,868L37,788Z" fill="#955260" stroke="#955260"/><path d="M-118,632L37,788L103,649Z" fill="#b37e77" stroke="#b37e77"/><path d="M103,649L37,788L271,716Z" fill="#ba837d" stroke="#ba837d"/><path d="M271,716L37,788L272,817Z" fill="#af7274" stroke="#af7274"/><path d="M271,716L272,817L331,853Z" fill="#b2757b" stroke="#b2757b"/><path d="M271,716L331,853L382,672Z" fill="#c28f8f" stroke="#c28f8f"/><path d="M382,672L331,853L566,774Z" fill="#be919f" stroke="#be919f"/><path d="M382,672L566,774L577,651Z" fill="#d4b9c3" stroke="#d4b9c3"/><path d="M577,651L566,774L656,721Z" fill="#d0b8cd" stroke="#d0b8cd"/><path d="M656,721L566,774L616,807Z" fill="#c0a1c1" stroke="#c0a1c1"/><path d="M656,721L616,807L822,791Z" fill="#bda2ca" stroke="#bda2ca"/><path d="M656,721L822,791L836,657Z" fill="#cbbce0" stroke="#cbbce0"/><path d="M836,657L822,791L954,701Z" fill="#cabee6" stroke="#cabee6"/><path d="M954,701L822,791L1007,803Z" fill="#b8a5d8" stroke="#b8a5d8"/><path d="M954,701L1007,803L1074,654Z" fill="#c1b5e3" stroke="#c1b5e3"/><path d="M1074,654L1007,803L1105,780Z" fill="#b6a7db" stroke="#b6a7db"/><path d="M1074,654L1105,780L1284,648Z" fill="#bdb4e3" stroke="#bdb4e3"/><path d="M1284,648L1105,780L1329,826Z" fill="#a28fce" stroke="#a28fce"/><path d="M1284,648L1329,826L1373,719Z" fill="#9e8ccd" stroke="#9e8ccd"/><path d="M1373,719L1329,826L1414,855Z" fill="#8467b8" stroke="#8467b8"/><path d="M1373,719L1414,855L1558,824Z" fill="#7b58af" stroke="#7b58af"/><path d="M1373,719L1558,824L1575,681Z" fill="#8569b9" stroke="#8569b9"/><path d="M1575,681L1558,824L1681,696Z" fill="#7b59b0" stroke="#7b59b0"/><path d="M1681,696L1558,824L1757,791Z" fill="#683da0" stroke="#683da0"/><path d="M1681,696L1757,791L1900,723Z" fill="#643c9c" stroke="#643c9c"/><path d="M1900,723L1757,791L1846,885Z" fill="#4a2086" stroke="#4a2086"/><path d="M1900,723L1846,885L2041,829Z" fill="#3b1a78" stroke="#3b1a78"/><path d="M1900,723L2041,829L1985,663Z" fill="#4b3b87" stroke="#4b3b87"/><path d="M-133,868L-106,1072L-53,966Z" fill="#541f2a" stroke="#541f2a"/><path d="M-133,868L-53,966L37,788Z" fill="#762543" stroke="#762543"/><path d="M37,788L-53,966L51,977Z" fill="#722e3d" stroke="#722e3d"/><path d="M37,788L51,977L197,920Z" fill="#7f394a" stroke="#7f394a"/><path d="M37,788L197,920L272,817Z" fill="#985060" stroke="#985060"/><path d="M272,817L197,920L331,853Z" fill="#9c5465" stroke="#9c5465"/><path d="M331,853L197,920L379,993Z" fill="#8c555c" stroke="#8c555c"/><path d="M331,853L379,993L566,774Z" fill="#9e6384" stroke="#9e6384"/><path d="M566,774L379,993L558,1008Z" fill="#906b87" stroke="#906b87"/><path d="M566,774L558,1008L616,807Z" fill="#a375a4" stroke="#a375a4"/><path d="M616,807L558,1008L672,956Z" fill="#917399" stroke="#917399"/><path d="M616,807L672,956L822,791Z" fill="#a57fb6" stroke="#a57fb6"/><path d="M822,791L672,956L868,924Z" fill="#997ab6" stroke="#997ab6"/><path d="M822,791L868,924L1007,803Z" fill="#a385c6" stroke="#a385c6"/><path d="M1007,803L868,924L975,922Z" fill="#9375b9" stroke="#9375b9"/><path d="M1007,803L975,922L1105,780Z" fill="#9d80c4" stroke="#9d80c4"/><path d="M1105,780L975,922L1133,995Z" fill="#886fb2" stroke="#886fb2"/><path d="M1105,780L1133,995L1329,826Z" fill="#8562b4" stroke="#8562b4"/><path d="M1329,826L1133,995L1330,1017Z" fill="#65569a" stroke="#65569a"/><path d="M1329,826L1330,1017L1392,939Z" fill="#614a98" stroke="#614a98"/><path d="M1329,826L1392,939L1414,855Z" fill="#6d46a4" stroke="#6d46a4"/><path d="M1414,855L1392,939L1549,953Z" fill="#583891" stroke="#583891"/><path d="M1414,855L1549,953L1558,824Z" fill="#5c2e95" stroke="#5c2e95"/><path d="M1558,824L1549,953L1746,979Z" fill="#42197e" stroke="#42197e"/><path d="M1558,824L1746,979L1757,791Z" fill="#490e85" stroke="#490e85"/><path d="M1757,791L1746,979L1846,885Z" fill="#370075" stroke="#370075"/><path d="M1846,885L1746,979L1820,959Z" fill="#230064" stroke="#230064"/><path d="M1846,885L1820,959L2012,1007Z" fill="#160058" stroke="#160058"/><path d="M1846,885L2012,1007L2041,829Z" fill="#19005c" stroke="#19005c"/><path d="M2041,829L2012,1007L2018,1072Z" fill="#050046" stroke="#050046"/><path d="M-53,966L-106,1072L28,1071Z" fill="#552619" stroke="#552619"/><path d="M-53,966L28,1071L51,977Z" fill="#5b2d25" stroke="#5b2d25"/><path d="M51,977L28,1071L189,1149Z" fill="#64381d" stroke="#64381d"/><path d="M51,977L189,1149L197,920Z" fill="#6a4031" stroke="#6a4031"/><path d="M197,920L189,1149L379,993Z" fill="#774f3b" stroke="#774f3b"/><path d="M379,993L189,1149L414,1085Z" fill="#7a583a" stroke="#7a583a"/><path d="M379,993L414,1085L558,1008Z" fill="#7d6561" stroke="#7d6561"/><path d="M558,1008L414,1085L563,1147Z" fill="#7e6c60" stroke="#7e6c60"/><path d="M558,1008L563,1147L681,1122Z" fill="#7f726b" stroke="#7f726b"/><path d="M558,1008L681,1122L672,956Z" fill="#7e7480" stroke="#7e7480"/><path d="M672,956L681,1122L852,1084Z" fill="#7d7885" stroke="#7d7885"/><path d="M672,956L852,1084L868,924Z" fill="#7c7b9e" stroke="#7c7b9e"/><path d="M868,924L852,1084L975,922Z" fill="#7a78a2" stroke="#7a78a2"/><path d="M975,922L852,1084L935,1123Z" fill="#767790" stroke="#767790"/><path d="M975,922L935,1123L1089,1133Z" fill="#72728a" stroke="#72728a"/><path d="M975,922L1089,1133L1133,995Z" fill="#6e6f94" stroke="#6e6f94"/><path d="M1133,995L1089,1133L1319,1073Z" fill="#636280" stroke="#636280"/><path d="M1133,995L1319,1073L1330,1017Z" fill="#595784" stroke="#595784"/><path d="M1330,1017L1319,1073L1470,1154Z" fill="#4d476e" stroke="#4d476e"/><path d="M1330,1017L1470,1154L1535,1103Z" fill="#433964" stroke="#433964"/><path d="M1330,1017L1535,1103L1392,939Z" fill="#473e79" stroke="#473e79"/><path d="M1392,939L1535,1103L1549,953Z" fill="#3e3177" stroke="#3e3177"/><path d="M1549,953L1535,1103L1746,979Z" fill="#2f1a67" stroke="#2f1a67"/><path d="M1746,979L1535,1103L1773,1128Z" fill="#250c50" stroke="#250c50"/><path d="M1746,979L1773,1128L1820,959Z" fill="#190052" stroke="#190052"/><path d="M1820,959L1773,1128L1830,1176Z" fill="#16003e" stroke="#16003e"/><path d="M1820,959L1830,1176L2018,1072Z" fill="#0c003a" stroke="#0c003a"/><path d="M1820,959L2018,1072L2012,1007Z" fill="#040042" stroke="#040042"/><path d="M-106,1072L189,1149L28,1071Z" fill="#5e3110" stroke="#5e3110"/><path d="M189,1149L1830,1176L563,1147Z" fill="#7a7a7b" stroke="#7a7a7b"/><path d="M189,1149L563,1147L414,1085Z" fill="#7b5e39" stroke="#7b5e39"/><path d="M563,1147L1830,1176L1470,1154Z" fill="#565368" stroke="#565368"/><path d="M563,1147L1470,1154L1089,1133Z" fill="#6f7077" stroke="#6f7077"/><path d="M563,1147L1089,1133L935,1123Z" fill="#7a7a7b" stroke="#7a7a7b"/><path d="M563,1147L935,1123L681,1122Z" fill="#7d7870" stroke="#7d7870"/><path d="M681,1122L935,1123L852,1084Z" fill="#7c7c81" stroke="#7c7c81"/><path d="M1089,1133L1470,1154L1319,1073Z" fill="#56526a" stroke="#56526a"/><path d="M1470,1154L1830,1176L1773,1128Z" fill="#250b3f" stroke="#250b3f"/><path d="M1470,1154L1773,1128L1535,1103Z" fill="#311e4a" stroke="#311e4a"/></g></svg>